<svg width="24" height="24" viewBox="0 0 24 24" fill="none" xmlns="http://www.w3.org/2000/svg">
<path d="M4.10059 7.79962L3.75879 7.68536C2.5244 7.2739 1.7002 6.14593 1.7002 4.79962C1.70039 3.03609 3.03627 1.70021 4.7998 1.70001C6.56353 1.70001 7.90019 3.03596 7.90039 4.79962C7.90039 6.14593 7.07618 7.2739 5.8418 7.68536L5.5 7.79962V13.7H6C6.88566 13.7 7.71827 13.922 8.32031 14.4236L8.67578 14.7205L8.99902 14.3885L17.3984 5.74884L17.6104 5.53009L17.5146 5.242C17.3993 4.89585 17.2998 4.47762 17.2998 4.20001C17.2998 2.79628 18.3961 1.70022 19.7998 1.70001C21.2037 1.70001 22.2998 2.79615 22.2998 4.20001C22.2998 5.60387 21.2037 6.70001 19.7998 6.70001C19.6685 6.69997 19.5297 6.67843 19.3428 6.64728C19.1701 6.6185 18.9482 6.5799 18.7197 6.5799H18.5088L18.3613 6.73126L9.8418 15.491L9.57324 15.7674L9.77148 16.0975C10.0897 16.6279 10.2998 17.2598 10.2998 17.9998V18.4998H16.2002L16.3145 18.158C16.7259 16.9237 17.8539 16.1004 19.2002 16.1004C20.8744 16.1004 22.281 17.4575 22.1816 19.0486L22.1807 19.0643V19.0799C22.1807 20.833 20.7348 22.1805 19.0801 22.1805C17.7531 22.1804 16.6067 21.2536 16.1904 20.1092L16.0703 19.7801H9.77148L9.63281 20.0565C9.00312 21.3157 7.6235 22.1805 6 22.1805C3.63623 22.1804 1.7002 20.2435 1.7002 17.8797C1.70031 16.3897 2.55552 14.9888 3.85254 14.2322L4.10059 14.0867V7.79962Z" fill="#AC4800" stroke="#AC4800"/>
</svg>
