<svg width="24" height="24" viewBox="0 0 24 24" fill="none" xmlns="http://www.w3.org/2000/svg">
<path d="M4 16.5H20C20.1571 16.5 20.2656 16.5478 20.3594 16.6416C20.4531 16.7353 20.5004 16.8433 20.5 16.999C20.4996 17.1559 20.4517 17.2653 20.3574 17.3604C20.265 17.4534 20.1578 17.5007 20.002 17.5H4C3.84307 17.5 3.73538 17.4523 3.64258 17.3594C3.54874 17.2652 3.50041 17.156 3.5 16.999C3.49963 16.844 3.54669 16.7363 3.64062 16.6426C3.7358 16.5477 3.84488 16.5 4 16.5ZM4 11.5H20C20.1571 11.5 20.2656 11.5478 20.3594 11.6416C20.4531 11.7353 20.5004 11.8433 20.5 11.999C20.4996 12.1559 20.4517 12.2653 20.3574 12.3604C20.265 12.4534 20.1578 12.5007 20.002 12.5H4C3.84307 12.5 3.73538 12.4523 3.64258 12.3594C3.54874 12.2652 3.50041 12.156 3.5 11.999C3.49963 11.844 3.54669 11.7363 3.64062 11.6426C3.7358 11.5477 3.84488 11.5 4 11.5ZM4 6.5H20C20.1571 6.5 20.2656 6.54783 20.3594 6.6416C20.4531 6.73533 20.5004 6.84329 20.5 6.99902C20.4996 7.15585 20.4517 7.26534 20.3574 7.36035C20.265 7.4534 20.1578 7.50073 20.002 7.5H4C3.84307 7.5 3.73538 7.45234 3.64258 7.35938C3.54874 7.26521 3.50041 7.15597 3.5 6.99902C3.49963 6.84403 3.54669 6.73634 3.64062 6.64258C3.7358 6.54774 3.84488 6.5 4 6.5Z" stroke="#2C2C2C"/>
</svg>
